<?xml version="1.0" encoding="utf-8"?>
<!-- Generator: Adobe Illustrator 21.0.0, SVG Export Plug-In . SVG Version: 6.00 Build 0)  -->
<svg version="1.1" id="Layer_1" xmlns="http://www.w3.org/2000/svg" xmlns:xlink="http://www.w3.org/1999/xlink" x="0px" y="0px"
	 viewBox="0 0 29 13" style="enable-background:new 0 0 29 13;" xml:space="preserve">
<style type="text/css">
	.st0{fill:#020202;}
</style>
<title>black-arrow</title>
<path id="Shape_Arrow" class="st0" d="M0,6.5c0-0.2,0.1-0.3,0.2-0.4L10.1,0c0.2-0.1,0.5,0,0.6,0.2c0,0.1,0,0.1,0,0.2v5.7h17.8
	c0.2,0,0.4,0.2,0.4,0.4S28.8,7,28.6,7H10.7v5.6c0,0.2-0.2,0.4-0.5,0.4c-0.1,0-0.1,0-0.2,0L0.2,6.9C0.1,6.8,0,6.7,0,6.5z M1.2,6.5
	l8.7,5.3V1.2L1.2,6.5z"/>
</svg>
