<?xml version="1.0" encoding="utf-8"?>
<!-- Generator: Adobe Illustrator 21.0.0, SVG Export Plug-In . SVG Version: 6.00 Build 0)  -->
<svg version="1.1" id="Layer_1" xmlns="http://www.w3.org/2000/svg" xmlns:xlink="http://www.w3.org/1999/xlink" x="0px" y="0px"
	 viewBox="0 0 29 31.8" style="enable-background:new 0 0 29 31.8;" xml:space="preserve">
<style type="text/css">
	.st0{fill:#7C7C7B;}
</style>
<title>gray-arrow</title>
<path id="Shape_Arrow" class="st0" d="M29,25.3c0,0.2-0.1,0.3-0.2,0.4l-9.9,6.1c-0.2,0.1-0.5,0-0.6-0.2c0-0.1,0-0.1,0-0.2v-5.6H0.4
	c-0.2,0-0.4-0.2-0.4-0.4c0-0.2,0.2-0.4,0.4-0.4h17.8v-5.6c0-0.2,0.2-0.4,0.5-0.4c0.1,0,0.1,0,0.2,0l9.9,6.1C28.9,25,29,25.1,29,25.3
	z M27.8,25.3L19.1,20v10.6L27.8,25.3z"/>
<path id="Shape_Arrow_1_" d="M29,8.9C29,9,29,9.1,28.8,9.2l-9.9,6.1c-0.2,0.1-0.5,0-0.6-0.2c0-0.1,0-0.1,0-0.2V9.3H0.4
	C0.2,9.3,0,9.1,0,8.8c0-0.2,0.2-0.4,0.4-0.4h17.8V2.8c0-0.2,0.2-0.4,0.5-0.4c0.1,0,0.1,0,0.2,0l9.9,6.1C28.9,8.6,29,8.7,29,8.9z
	 M27.8,8.9l-8.7-5.3v10.6L27.8,8.9z"/>
</svg>
