<svg id="Icons" xmlns="http://www.w3.org/2000/svg" width="599" height="51" viewBox="0 0 599 51">
  <metadata><?xpacket begin="﻿" id="W5M0MpCehiHzreSzNTczkc9d"?>
<x:xmpmeta xmlns:x="adobe:ns:meta/" x:xmptk="Adobe XMP Core 5.6-c138 79.159824, 2016/09/14-01:09:01        ">
   <rdf:RDF xmlns:rdf="http://www.w3.org/1999/02/22-rdf-syntax-ns#">
      <rdf:Description rdf:about=""/>
   </rdf:RDF>
</x:xmpmeta>
                                                                                                    
                                                                                                    
                                                                                                    
                                                                                                    
                                                                                                    
                                                                                                    
                                                                                                    
                                                                                                    
                                                                                                    
                                                                                                    
                                                                                                    
                                                                                                    
                                                                                                    
                                                                                                    
                                                                                                    
                                                                                                    
                                                                                                    
                                                                                                    
                                                                                                    
                                                                                                    
                           
<?xpacket end="w"?></metadata>
<defs>
    <style>
      .cls-1 {
        fill: #fff;
      }

      .cls-1, .cls-2 {
        fill-rule: evenodd;
      }

      .cls-2 {
        fill: none;
        stroke: #fff;
        stroke-width: 1.1px;
      }
    </style>
  </defs>
  <g id="_11" data-name="11">
    <path class="cls-1" d="M584,19.846c-0.024.113-.046,0.226-0.071,0.339a2.329,2.329,0,0,1-.423.893q-1.875,2.494-3.749,4.987a2.432,2.432,0,0,1-2.022,1.014q-5.022.008-10.043,0a0.186,0.186,0,0,0-.2.12c-0.285.586-.6,1.16-0.861,1.755a1.224,1.224,0,0,0,.632,1.779,1.308,1.308,0,0,0,.511.089q6.768,0.007,13.536,0h0.172v1.247H567.717a2.511,2.511,0,0,1-2.472-2.1,2.47,2.47,0,0,1,.243-1.524q0.451-.908.895-1.821a0.248,0.248,0,0,0,0-.184q-2.227-5.244-4.459-10.487a0.142,0.142,0,0,0-.157-0.1c-0.522,0-1.043,0-1.565,0V14.606h2.5c0.335,0.786.672,1.571,1,2.358a0.2,0.2,0,0,0,.218.14q8.777,0,17.554,0a2.5,2.5,0,0,1,2.42,1.824c0.039,0.138.064,0.281,0.1,0.421v0.5Zm-19.7-1.5c0.02,0.052.034,0.089,0.05,0.126q1.543,3.621,3.087,7.244a0.165,0.165,0,0,0,.183.119q5.046,0,10.092,0a1.233,1.233,0,0,0,1.032-.513q0.66-.87,1.315-1.744,1.209-1.605,2.417-3.21a1.248,1.248,0,0,0-1.009-2.019H564.3ZM578.74,38.31c-0.145-.033-0.291-0.059-0.434-0.1a2.5,2.5,0,1,1,.992.077,0.253,0.253,0,0,0-.057.022h-0.5Zm1.5-2.5a1.253,1.253,0,1,0-1.258,1.249A1.256,1.256,0,0,0,580.243,35.814Zm-12.774,2.5c-0.133-.029-0.268-0.051-0.4-0.087a2.507,2.507,0,0,1-1.853-2.543,2.506,2.506,0,1,1,3,2.58c-0.081.015-.161,0.033-0.242,0.05h-0.5Zm0.246-1.247a1.248,1.248,0,1,0-1.248-1.259A1.259,1.259,0,0,0,567.715,37.063Z"/>
  </g>
  <g id="_10" data-name="10">
    <path class="cls-1" d="M531.605,26.14c-0.043,0-.086.009-0.129,0.009h-21.3a0.956,0.956,0,0,1-.975-0.605,0.945,0.945,0,0,1,.929-1.276q1.87,0,3.741,0h0.151V24.13c0-.91,0-1.82,0-2.731a0.922,0.922,0,0,1,.922-0.9c0.247,0.01.493,0.052,0.74,0.077l1.418,0.142,1.419,0.142,1.4,0.138,1.418,0.142,1.4,0.139,1.429,0.143,1.4,0.138,1.418,0.142,1.4,0.139c0.476,0.047.952,0.1,1.429,0.142a2.578,2.578,0,0,1,.789.16,1.531,1.531,0,0,1,.983,1.118c0.012,0.059.022,0.118,0.033,0.177v2.7Zm-24.9-8.182a2.971,2.971,0,0,1,.3.056,1.06,1.06,0,0,1,.759,1.069c0,0.759,0,1.518,0,2.278v6.374h23.8c0,0.047.006,0.085,0.006,0.123q0,2.887,0,5.775c0,0.043,0,.086-0.007.129h-2.12V29.731H507.763v0.147q0,1.873,0,3.745a1.28,1.28,0,0,1-.016.137h-2.1V18.886a0.123,0.123,0,0,0,.018-0.038,1.038,1.038,0,0,1,.821-0.856c0.065-.017.133-0.023,0.2-0.034h0.021Zm2.39,3.4a1.912,1.912,0,1,1,1.917,1.91A1.914,1.914,0,0,1,509.1,21.359Z"/>
  </g>
  <g id="_9" data-name="9">
    <path id="H" class="cls-1" d="M459.362,33.841h3.15V28.005h3.443v5.836h3.15V19.565h-3.15v5.763h-3.443V19.565h-3.15V33.841Z"/>
    <path class="cls-2" d="M463.888,8.088A17.412,17.412,0,1,1,446.5,25.5,17.4,17.4,0,0,1,463.888,8.088Z"/>
  </g>
  <g id="_8" data-name="8">
    <path id="Shape_-_Aeroplane" data-name="Shape - Aeroplane" class="cls-1" d="M411.779,28.487l1.668,0.106,9.441,3.613V29.919l-3.983-3.172a1.422,1.422,0,0,0,.5-1.273c0-.826-0.32-1.36-0.816-1.36h-0.907a0.955,0.955,0,0,0-.8,1.026l-1.5-1.191a1.532,1.532,0,0,0,.424-1.217c0-.826-0.321-1.36-0.816-1.36h-0.908a0.907,0.907,0,0,0-.778.922l-1.535-1.222V17.129c0-.048-0.389-4.793-2.1-4.793-1.732,0-2.008,4.745-2.008,4.793v3.943l-1.535,1.222a0.907,0.907,0,0,0-.778-0.922h-0.908c-0.5,0-.816.534-0.816,1.36a1.529,1.529,0,0,0,.424,1.217l-1.5,1.191a0.954,0.954,0,0,0-.8-1.026h-0.907c-0.5,0-.817.534-0.817,1.36a1.425,1.425,0,0,0,.5,1.273l-3.981,3.172v2.287L406,28.593l1.669-.106v2.141a26.291,26.291,0,0,0,.4,4.235l-3.529,2.478v2.2l4.081-.953a1.063,1.063,0,1,0,2.124-.018l4.159,0.971v-2.2l-3.513-2.467a27.633,27.633,0,0,0,.386-4.247V28.487h0Zm6.107-3.415h0.5a1.67,1.67,0,0,1,0,.8h-0.5A1.7,1.7,0,0,1,417.886,25.072Zm-16.825,0h0.5a1.67,1.67,0,0,1,0,.8h-0.5A1.7,1.7,0,0,1,401.061,25.072Zm9.746,5.556c0,0.587-.033,1.2-0.085,1.811a1.043,1.043,0,0,0-1.04-.983,0.963,0.963,0,0,0-.974.747c-0.043-.533-0.068-1.064-0.068-1.575v-13.3a3.668,3.668,0,0,0,.818.071h0.447a3.334,3.334,0,0,0,.9-0.1V30.628h0Zm-0.876,4.937a10.162,10.162,0,0,1-.249,3.15,10.218,10.218,0,0,1-.248-3.15,10.217,10.217,0,0,1,.248-3.15A10.161,10.161,0,0,1,409.931,35.565ZM410.512,16.4a2.741,2.741,0,0,1-.607.044h-0.447a2.692,2.692,0,0,1-.606-0.046V16.372A0.962,0.962,0,0,1,409.643,16a1.146,1.146,0,0,1,.869.394V16.4h0Zm3.736,6.332a1.515,1.515,0,0,1,.048-0.4h0.5a1.705,1.705,0,0,1,0,.8h-0.427l-0.089-.071A1.688,1.688,0,0,1,414.248,22.732Zm3.07,3.984,0.03,0.024,4.569,3.638v0.429l-8.258-3.16-1.88-.12V22.3Zm-7.654-13.422a4.724,4.724,0,0,1,.849,1.938,2.122,2.122,0,0,0-.87-0.193,2.04,2.04,0,0,0-.731.131A4.793,4.793,0,0,1,409.664,13.293Zm-5.013,9.841a1.705,1.705,0,0,1,0-.8h0.5a1.56,1.56,0,0,1,.048.4,1.607,1.607,0,0,1-.032.331l-0.088.071h-0.428Zm1.136,4.512-8.258,3.161V30.378L402.1,26.74c0.011-.007.02-0.017,0.03-0.024l5.539-4.412v5.222Zm-0.274,10.19,2.753-1.934s0,0,0,.005c0.073,0.349.145,0.658,0.216,0.933,0.009,0.28.022,0.545,0.037,0.786l-3.007.7V37.836h0Zm8.42,0.493-3.087-.721q0.006-.1.012-0.214c0.111-.39.227-0.874,0.347-1.474l2.728,1.916v0.493Z"/>
  </g>
  <g id="_7" data-name="7">
    <path id="Shape_-_Train" data-name="Shape - Train" class="cls-1" d="M347.592,15.52a3.161,3.161,0,0,0-3.276,3.07v13.4a2.127,2.127,0,0,0,1.2,1.7,10.3,10.3,0,0,0,2.713,1.073c0.379,0.1.776,0.2,1.177,0.279,0,0-2.833,4.005-2.858,4.039a0.283,0.283,0,0,0,.222.445,0.258,0.258,0,0,0,.2-0.087c0.045-.05,1.322-1.867,1.322-1.867h12.8s1.277,1.817,1.322,1.867a0.259,0.259,0,0,0,.2.087,0.282,0.282,0,0,0,.221-0.445l-2.857-4.039c0.4-.084.8-0.177,1.177-0.279a10.311,10.311,0,0,0,2.713-1.073,2.126,2.126,0,0,0,1.2-1.7v-13.4a3.161,3.161,0,0,0-3.275-3.07H347.592Zm0,0.558h6.824v12.2l-9.554-2.111V18.591A2.6,2.6,0,0,1,347.592,16.078Zm7.37,0h6.824a2.594,2.594,0,0,1,2.729,2.512v7.581l-9.553,2.111v-12.2Zm-10.1,10.669,9.767,2.163a0.274,0.274,0,0,0,.06,0,0.274,0.274,0,0,0,.06,0l9.766-2.163V31.99a1.609,1.609,0,0,1-.946,1.221,9.868,9.868,0,0,1-2.559,1.012,24.27,24.27,0,0,1-12.642,0,9.853,9.853,0,0,1-2.559-1.012,1.61,1.61,0,0,1-.947-1.221V26.747Zm2.73,1.893a1.4,1.4,0,1,0,1.365,1.4A1.384,1.384,0,0,0,347.592,28.64Zm14.194,0a1.4,1.4,0,1,0,1.365,1.4A1.384,1.384,0,0,0,361.786,28.64Zm-14.194.558a0.838,0.838,0,1,1-.819.837A0.825,0.825,0,0,1,347.592,29.2Zm14.194,0a0.838,0.838,0,1,1-.819.837A0.825,0.825,0,0,1,361.786,29.2ZM350,35.156a24.041,24.041,0,0,0,9.383,0l1.314,1.858h-12.01Zm12.608,4.51a0.4,0.4,0,0,1-.3-0.132c-0.044-.049-0.887-1.247-1.292-1.822H348.361c-0.4.576-1.247,1.773-1.292,1.822a0.4,0.4,0,0,1-.3.132,0.414,0.414,0,0,1-.409-0.419A0.418,0.418,0,0,1,346.442,39l2.733-3.863c-0.345-.075-0.673-0.154-0.978-0.237a10.249,10.249,0,0,1-2.749-1.089,2.226,2.226,0,0,1-1.268-1.82v-13.4a3.281,3.281,0,0,1,3.412-3.21h14.194a3.281,3.281,0,0,1,3.412,3.21v13.4a2.228,2.228,0,0,1-1.268,1.82,10.266,10.266,0,0,1-2.749,1.089c-0.306.082-.634,0.161-0.978,0.237L362.936,39A0.423,0.423,0,0,1,362.605,39.666Zm-14.384-2.233h12.935l0.041,0.058c0.5,0.711,1.263,1.793,1.314,1.856a0.124,0.124,0,0,0,.094.039,0.143,0.143,0,0,0,.112-0.222c-0.025-.034-2.743-3.877-2.859-4.04l-0.124-.175,0.207-.043c0.415-.087.809-0.18,1.17-0.277a10,10,0,0,0,2.676-1.057,1.975,1.975,0,0,0,1.138-1.582v-13.4a3.008,3.008,0,0,0-3.139-2.931H347.592a3.008,3.008,0,0,0-3.139,2.931v13.4a1.976,1.976,0,0,0,1.137,1.582,10,10,0,0,0,2.676,1.057c0.361,0.1.754,0.19,1.17,0.277l0.207,0.043-0.124.175c-0.115.164-2.833,4.006-2.859,4.041a0.143,0.143,0,0,0-.024.082,0.139,0.139,0,0,0,.233.1c0.049-.06.811-1.142,1.311-1.853Zm12.74-.279H348.417L349.937,35l0.085,0.016a23.9,23.9,0,0,0,9.334,0L359.44,35Zm-12.01-.279h11.476L359.32,35.31a24.133,24.133,0,0,1-9.262,0Zm5.738-1.675a26.7,26.7,0,0,1-6.356-.842,9.969,9.969,0,0,1-2.6-1.028,1.731,1.731,0,0,1-1.012-1.34V26.574l9.932,2.2,0.031,0h0.03l9.933-2.2V31.99a1.733,1.733,0,0,1-1.012,1.34,9.982,9.982,0,0,1-2.6,1.028A26.7,26.7,0,0,1,354.689,35.2ZM345,26.92v5.07a1.492,1.492,0,0,0,.881,1.1,9.722,9.722,0,0,0,2.523,1,24.134,24.134,0,0,0,12.572,0,9.728,9.728,0,0,0,2.522-1,1.493,1.493,0,0,0,.882-1.1V26.92l-9.6,2.127a0.26,0.26,0,0,1-.078,0,0.406,0.406,0,0,1-.1,0Zm16.787,4.651a1.535,1.535,0,1,1,1.5-1.535A1.521,1.521,0,0,1,361.786,31.571Zm0-2.791a1.257,1.257,0,1,0,1.228,1.256A1.244,1.244,0,0,0,361.786,28.779Zm-14.194,2.791a1.535,1.535,0,1,1,1.5-1.535A1.521,1.521,0,0,1,347.592,31.571Zm0-2.791a1.257,1.257,0,1,0,1.228,1.256A1.243,1.243,0,0,0,347.592,28.779Zm14.194,2.233a0.977,0.977,0,1,1,.955-0.977A0.968,0.968,0,0,1,361.786,31.013Zm0-1.675a0.7,0.7,0,1,0,.682.7A0.683,0.683,0,0,0,361.786,29.338Zm-14.194,1.675a0.977,0.977,0,1,1,.955-0.977A0.968,0.968,0,0,1,347.592,31.013Zm0-1.675a0.7,0.7,0,1,0,.682.7A0.683,0.683,0,0,0,347.592,29.338Zm7.233-.883V15.939h6.961a2.736,2.736,0,0,1,2.866,2.652v7.693ZM355.1,16.218V28.11l9.281-2.051V18.591a2.464,2.464,0,0,0-2.593-2.372H355.1Zm-0.546,12.237-9.826-2.171V18.591a2.736,2.736,0,0,1,2.866-2.652h6.96V28.455ZM345,26.059l9.28,2.051V16.218h-6.687A2.464,2.464,0,0,0,345,18.591v7.468Z"/>
  </g>
  <g id="_6" data-name="6">
    <path id="MTA" class="cls-1" d="M296.5,28.557q-0.053-1.284-.053-1.926,0-.695.05-2.076t0.051-2.076a0.143,0.143,0,0,0-.178-0.141c-0.1,0-.249.01-0.452,0.03s-0.354.029-.452,0.029c-0.118,0-.293-0.006-0.523-0.018s-0.4-.018-0.518-0.018a0.3,0.3,0,0,0-.218.23q-1.172,2.491-1.768,3.728a1.019,1.019,0,0,1-.278.442,0.582,0.582,0,0,1-.307-0.383L290.132,22.6a0.409,0.409,0,0,0-.183-0.247q-0.325,0-.976.021T288,22.4c-0.169,0-.252.039-0.248,0.118l0.006,0.1q0.047,0.966.053,1.454,0.058,1.879.059,2.562,0,0.642-.062,1.929t-0.062,1.929a0.25,0.25,0,0,0,.026.133,0.182,0.182,0,0,0,.145.038h1.975a0.166,0.166,0,0,0,.165-0.206q0-.577-0.029-1.731T290,26.991a0.283,0.283,0,0,1,.041-0.171,0.183,0.183,0,0,1,.054.065q0.278,0.583.833,1.89,0.521,1.237.84,1.884a0.392,0.392,0,0,0,.366.118,2.319,2.319,0,0,0,.236-0.006,0.246,0.246,0,0,0,.148-0.159q0.426-1.042.851-2.091a16.629,16.629,0,0,1,.793-1.82,0.181,0.181,0,0,1,.053.182q0,0.595-.045,1.784t-0.044,1.784a0.169,0.169,0,0,0,.172.206h2.092a0.157,0.157,0,0,0,.172-0.183Q296.558,29.841,296.5,28.557Zm6.872-4.785a3.439,3.439,0,0,1-.038-0.433q0-.129.012-0.442c0.007-.188.011-0.336,0.011-0.442a0.216,0.216,0,0,0-.023-0.115,0.324,0.324,0,0,0-.136-0.015l-0.775.059Q301,22.5,300.465,22.5a23.955,23.955,0,0,1-2.832-.124l-0.082-.006a0.489,0.489,0,0,0-.142.442q-0.024.277-.042,0.554-0.012.088-.106,0.5a3.486,3.486,0,0,0-.083.453c0,0.039.032,0.059,0.1,0.059q0.7,0,1.885-.118,0.048,1.59.048,2.049,0,0.695-.059,2.085t-0.059,2.085a0.173,0.173,0,0,0,.165.183,8.184,8.184,0,0,0,1.07.047,8.524,8.524,0,0,0,1.04-.047,0.715,0.715,0,0,0,.166-0.029,0.151,0.151,0,0,0,.053-0.141q0-.695-0.056-2.091t-0.056-2.091q0-.589.035-2.079,1.555,0.088,1.779.088a0.11,0.11,0,0,0,.131-0.118A3.472,3.472,0,0,0,303.376,23.773Zm7.061,2.936q-1.4-3.622-1.691-4.24a0.271,0.271,0,0,0-.206-0.194c-0.1,0-.258.007-0.464,0.021s-0.364.021-.47,0.021-0.277-.01-0.5-0.03-0.387-.029-0.493-0.029a0.253,0.253,0,0,0-.166.224q-0.125.389-1.572,4.293-1.337,3.61-1.336,3.763a1.051,1.051,0,0,0,.9.171,9.975,9.975,0,0,0,1.348-.047,0.687,0.687,0,0,0,.272-0.53,1.624,1.624,0,0,1,.224-0.63,4.694,4.694,0,0,1,1.07-.053,13.143,13.143,0,0,1,1.585.041,2.264,2.264,0,0,1,.313.907,0.317,0.317,0,0,0,.254.265,7.5,7.5,0,0,0,1.088.047,6.809,6.809,0,0,0,1.1-.047,0.161,0.161,0,0,0,.148-0.147q0-.159-1.407-3.8h0Zm-2.394-.477a5.745,5.745,0,0,1,.272,1.072,0.225,0.225,0,0,1-.012.082,0.533,0.533,0,0,1-.431.094q-0.42,0-.6-0.012c-0.237-.008-0.355-0.047-0.355-0.118a6.05,6.05,0,0,1,.319-1.078q0.3-.866.42-1.125a8.233,8.233,0,0,1,.39,1.084h0Z"/>
    <path class="cls-2" d="M299.319,8.088A17.412,17.412,0,1,1,281.931,25.5,17.4,17.4,0,0,1,299.319,8.088Z"/>
  </g>
  <g id="_5" data-name="5">
    <path id="Shape_-_Exhibition" data-name="Shape - Exhibition" class="cls-1" d="M240.019,32.633a3.685,3.685,0,1,0-5.438,0,5.917,5.917,0,0,0-3.363,5.378v5.271a0.358,0.358,0,0,0,.715,0V38.011a5.277,5.277,0,0,1,3.292-4.915,7.926,7.926,0,0,0,2.075.285,7.2,7.2,0,0,0,2.04-.285l0.035,0.036a5.2,5.2,0,0,1,3.256,4.879v5.271a0.358,0.358,0,0,0,.716,0V38.011A5.823,5.823,0,0,0,240.019,32.633Zm-4.687-.249a2.972,2.972,0,1,1,4.938-2.244,2.99,2.99,0,0,1-1,2.244A7.7,7.7,0,0,1,235.332,32.383Zm-1.467,5.77a0.337,0.337,0,0,0-.357.356v4.737a0.358,0.358,0,0,0,.715,0V38.509A0.337,0.337,0,0,0,233.865,38.153Zm6.727,0a0.337,0.337,0,0,0-.358.356v4.737a0.358,0.358,0,0,0,.716,0V38.509A0.358,0.358,0,0,0,240.592,38.153Zm14.7-6.909a4.038,4.038,0,0,0,1.11-2.814,4.115,4.115,0,0,0-8.23,0,4.171,4.171,0,0,0,1.109,2.814,6.7,6.7,0,0,0-3.828,6.054v5.948a0.358,0.358,0,0,0,.716,0V37.334a5.953,5.953,0,0,1,3.792-5.592,8.232,8.232,0,0,0,2.362.321,8.091,8.091,0,0,0,2.325-.321l0.036,0.036a5.858,5.858,0,0,1,3.721,5.556v5.948a0.358,0.358,0,0,0,.716,0V37.334A6.717,6.717,0,0,0,255.3,31.244Zm-5.223-.249a3.35,3.35,0,0,1-1.181-2.564,3.4,3.4,0,0,1,6.8,0,3.35,3.35,0,0,1-1.181,2.564h0A8.024,8.024,0,0,1,250.074,30.995Zm-1.682,6.553a0.337,0.337,0,0,0-.358.356v5.378a0.358,0.358,0,0,0,.716,0V37.9A0.358,0.358,0,0,0,248.392,37.548Zm7.657,0a0.337,0.337,0,0,0-.358.356v5.378a0.358,0.358,0,0,0,.716,0V37.9A0.337,0.337,0,0,0,256.049,37.548Zm-18.82-14.46h15.886a0.337,0.337,0,0,0,.358-0.356V12.973a0.337,0.337,0,0,0-.358-0.356H237.229a0.337,0.337,0,0,0-.358.356v9.759A0.358,0.358,0,0,0,237.229,23.088Zm0.357-9.759h15.171v9.047H237.586V13.329Zm6.691,4.38a1.535,1.535,0,0,0,.787.214,2.428,2.428,0,0,0,.5-0.071,1.761,1.761,0,0,0,1-.819,1.642,1.642,0,0,0-.68-2.244,1.561,1.561,0,0,0-.894-0.178,0.357,0.357,0,0,0-.286.534,0.947,0.947,0,0,1,.035.926,1,1,0,0,1-.787.5,0.357,0.357,0,0,0-.286.534A1.65,1.65,0,0,0,244.277,17.709Zm1.074-1.317a1.511,1.511,0,0,0,.179-0.962,0.945,0.945,0,0,1-.179,1.745,0.988,0.988,0,0,1-.716-0.071A1.721,1.721,0,0,0,245.351,16.392Zm6.082,2.992a2.055,2.055,0,0,0-1.252.427,1.243,1.243,0,0,1-.859.285,1.448,1.448,0,0,1-.859-0.285,2.048,2.048,0,0,0-2.5,0,1.244,1.244,0,0,1-.859.285,1.448,1.448,0,0,1-.859-0.285,2.048,2.048,0,0,0-2.5,0,1.243,1.243,0,0,1-.859.285,1.448,1.448,0,0,1-.859-0.285,2.055,2.055,0,0,0-1.252-.427,0.356,0.356,0,1,0,0,.712,1.448,1.448,0,0,1,.859.285,2.047,2.047,0,0,0,2.5,0,1.242,1.242,0,0,1,.858-0.285,1.448,1.448,0,0,1,.859.285,2.046,2.046,0,0,0,2.5,0,1.246,1.246,0,0,1,.859-0.285,1.448,1.448,0,0,1,.859.285,2.047,2.047,0,0,0,2.5,0,1.242,1.242,0,0,1,.858-0.285A0.356,0.356,0,1,0,251.433,19.384Z"/>
  </g>
  <g id="_4" data-name="4">
    <path id="Shape_-_Sites" data-name="Shape - Sites" class="cls-1" d="M196.249,34.829V29.162H195.3v-2.79h-0.758v-1.4h-1.115V23.729H192.59v-0.62a0.34,0.34,0,0,0-.339-0.342h-0.129V21.481h-0.364V20.4h-0.321V15.659h-0.276V15.366a0.349,0.349,0,0,0-.043-0.167l-0.3-.535a0.338,0.338,0,0,0-.3-0.175h-0.042V9.279a0.339,0.339,0,1,0-.678,0v5.209h-0.042a0.338,0.338,0,0,0-.295.175l-0.3.536a0.336,0.336,0,0,0-.044.167v0.292H188.85v4.736h-0.321V21.48h-0.364v1.286h-0.129a0.34,0.34,0,0,0-.339.342v0.62h-0.839v1.247h-1.115v1.4h-0.758v2.791h-0.947v5.666H183.3v8.285h13.686V34.829h-0.737Zm-0.677,0h-2.643V29.846h2.643v4.983Zm-4.128-12.665v0.6h-0.993V16.342h0.308v4.736h0.321v1.086h0.364ZM189.8,15.455l0.158-.283h0.365l0.157,0.283v0.2H189.8v-0.2Zm-0.96,6.709h0.364V21.078h0.321V16.342h0.245v6.425h-0.93v-0.6Zm-0.468,1.286h3.537v0.278h-3.537V23.45Zm-0.839.962h5.215v0.564h-5.215V24.412Zm-1.115,1.248h7.445v0.712h-7.445V25.66Zm-1.227,9.17h-0.478V29.846h2.642v4.983h-2.164m2.562,7.6h-3.778V35.512h3.778V42.43Zm3.7,0V28.063a0.339,0.339,0,1,0-.678,0V42.43h-0.33V28.063a0.339,0.339,0,1,0-.678,0V42.43h-0.331V28.063a0.339,0.339,0,1,0-.677,0V42.43h-0.331v-7.6h-0.4V29.162H187.6V28.234h-0.678v0.928h-1.255V27.055h8.962v2.107h-1.318V28.234h-0.678v0.928h-0.377v5.667h-0.4v7.6h-0.393Zm4.85,0H192.53V35.512h3.779V42.43Z"/>
  </g>
  <g id="_3" data-name="3">
    <path id="Shape_-_Coffee" data-name="Shape - Coffee" class="cls-1" d="M147.886,23.795a0.477,0.477,0,0,0-.338-0.141H125.854a0.476,0.476,0,0,0-.476.477v4.832c0,4.612,4.039,8.365,9,8.365a8.812,8.812,0,0,0,8.928-7.312c3.686-.249,4.7-3.912,4.716-5.882A0.478,0.478,0,0,0,147.886,23.795ZM134.38,36.373c-4.439,0-8.051-3.324-8.051-7.411V24.608h16.1v4.355C142.431,33.049,138.82,36.373,134.38,36.373Zm9-7.322c0-.03,0-0.059,0-0.089V24.608h3.661C146.924,25.8,146.33,28.763,143.38,29.052Zm-12.854-8.146a0.476,0.476,0,1,0,.951,0,1.14,1.14,0,0,1,.275-0.766,2.148,2.148,0,0,0,0-2.623,1.2,1.2,0,0,1,0-1.531,2.06,2.06,0,0,0,.447-1.312,0.476,0.476,0,1,0-.951,0,1.134,1.134,0,0,1-.276.765,2.152,2.152,0,0,0,0,2.624,1.2,1.2,0,0,1,0,1.531A2.062,2.062,0,0,0,130.526,20.906Zm3.018,0a0.476,0.476,0,1,0,.951,0,1.135,1.135,0,0,1,.275-0.766,2.148,2.148,0,0,0,0-2.623,1.2,1.2,0,0,1,0-1.531,2.06,2.06,0,0,0,.447-1.312,0.476,0.476,0,1,0-.951,0,1.134,1.134,0,0,1-.276.765,2.149,2.149,0,0,0,0,2.624,1.2,1.2,0,0,1,0,1.531A2.062,2.062,0,0,0,133.544,20.906Zm3.018,0a0.476,0.476,0,1,0,.951,0,1.14,1.14,0,0,1,.275-0.766,2.148,2.148,0,0,0,0-2.623,1.2,1.2,0,0,1,0-1.531,2.06,2.06,0,0,0,.447-1.312,0.476,0.476,0,1,0-.951,0,1.134,1.134,0,0,1-.276.765,2.152,2.152,0,0,0,0,2.624,1.2,1.2,0,0,1,0,1.531A2.067,2.067,0,0,0,136.562,20.906Z"/>
  </g>
  <g id="_2" data-name="2">
    <path id="Shape_-_Bar" data-name="Shape - Bar" class="cls-1" d="M83.838,37.5a0.438,0.438,0,0,1,.428.438h0a0.441,0.441,0,0,1-.436.438H78.647a0.441,0.441,0,0,1-.435-0.438h0A0.43,0.43,0,0,1,78.64,37.5h2.167V28.742h0.865V37.5h2.167ZM74.308,15.6H70a0.442,0.442,0,0,1-.437-0.438,0.435,0.435,0,0,1,.428-0.438h4.506a0.922,0.922,0,0,1,.755.47l3.661,7.417H89.457v0.876H73.021V22.608h4.923l-3.382-6.851A0.322,0.322,0,0,0,74.308,15.6Zm-1.722,4.382h17.3a0.439,0.439,0,0,1,.431.438,0.434,0.434,0,0,1-.431.438h-17.3a0.439,0.439,0,0,1-.431-0.438A0.434,0.434,0,0,1,72.587,19.979Zm-0.431.438a9.084,9.084,0,1,0,18.167,0,0.433,0.433,0,1,0-.865,0,8.219,8.219,0,1,1-16.436,0,0.433,0.433,0,1,0-.865,0h0Zm17.3-4.82a4.382,4.382,0,0,1,0,8.763,0.438,0.438,0,0,1,0-.876A3.505,3.505,0,1,0,86,19.979a0.433,0.433,0,1,1-.865,0A4.354,4.354,0,0,1,89.457,15.6Z"/>
  </g>
  <g id="_1" data-name="1">
    <path id="Shape_-_Restaurants" data-name="Shape - Restaurants" class="cls-1" d="M21.841,19.925a2.333,2.333,0,0,1,.7,1.656,4.782,4.782,0,0,0,1.325,2.913,0.482,0.482,0,0,0,.379.183,0.472,0.472,0,0,0,.3-0.1,0.481,0.481,0,0,0,.079-0.677,3.752,3.752,0,0,1-1.117-2.3,3.315,3.315,0,0,0-1.015-2.374l-4.467-3.78a0.482,0.482,0,0,0-.624.735Zm-2.162,1.93a0.482,0.482,0,1,0,.682-0.681l-4.343-4.336a0.482,0.482,0,1,0-.682.681ZM20.246,25a4.432,4.432,0,0,1,2.161,1.111,0.482,0.482,0,0,0,.6-0.756,5.19,5.19,0,0,0-2.689-1.316,3.161,3.161,0,0,1-2.01-.831l-3.726-3.955a0.482,0.482,0,0,0-.7.661l3.737,3.964A4.068,4.068,0,0,0,20.246,25ZM36.484,35.91l-6.633-6.623a0.482,0.482,0,0,0-.682.681L35.8,36.591a0.482,0.482,0,1,1-.682.682l-7.263-7.252a0.482,0.482,0,1,0-.682.681l7.263,7.252A1.446,1.446,0,1,0,36.484,35.91ZM36.6,17.357a2.674,2.674,0,0,0-.793-1.965,0.481,0.481,0,0,0-.641-0.035c-0.092.073-1.7,1.664-20.509,20.473A1.447,1.447,0,0,0,16.7,37.88l6.143-6.134c2.366-2.362,3.391-2.69,3.956-2.731a4.1,4.1,0,0,0,2.647-1.141C32.519,24.8,36.6,20.374,36.6,17.357Zm-9.872,10.7c-1.174.084-2.54,0.986-4.569,3.01L16.016,37.2a0.482,0.482,0,1,1-.677-0.686C27.7,24.147,33.927,17.931,35.416,16.455a1.81,1.81,0,0,1,.217.9c0,2.966-5.171,8.135-6.872,9.833A3.14,3.14,0,0,1,26.727,28.052Z"/>
  </g>
</svg>
