<?xml version="1.0" encoding="utf-8"?>
<!-- Generator: Adobe Illustrator 21.0.0, SVG Export Plug-In . SVG Version: 6.00 Build 0)  -->
<svg version="1.1" id="Layer_1" xmlns="http://www.w3.org/2000/svg" xmlns:xlink="http://www.w3.org/1999/xlink" x="0px" y="0px"
	 viewBox="0 0 33 17" style="enable-background:new 0 0 33 17;" xml:space="preserve">
<style type="text/css">
	.st0{fill:#7C7C7B;}
</style>
<path id="Shape_Arrow" class="st0" d="M31,8.4c0,0.2-0.1,0.3-0.2,0.4l-9.9,6.1c-0.2,0.1-0.5,0-0.6-0.2c0-0.1,0-0.1,0-0.2V8.9H2.4
	C2.2,8.9,2,8.7,2,8.4S2.2,8,2.4,8h17.8V2.4c0-0.2,0.2-0.4,0.4-0.4c0.1,0,0.1,0,0.2,0l9.9,6.1C30.9,8.1,31,8.3,31,8.4z M29.8,8.4
	l-8.7-5.3v10.6L29.8,8.4z"/>
</svg>
