<?xml version="1.0" encoding="utf-8"?>
<!-- Generator: Adobe Illustrator 21.0.0, SVG Export Plug-In . SVG Version: 6.00 Build 0)  -->
<svg version="1.1" id="Layer_1" xmlns="http://www.w3.org/2000/svg" xmlns:xlink="http://www.w3.org/1999/xlink" x="0px" y="0px"
	 viewBox="0 0 33 17" style="enable-background:new 0 0 33 17;" xml:space="preserve">
<style type="text/css">
	.st0{fill:#7C7C7B;}
</style>
<path id="Shape_Arrow" class="st0" d="M2,8.4C2,8.2,2.1,8.1,2.2,8l9.9-6c0.2-0.1,0.5,0,0.6,0.2c0,0.1,0,0.1,0,0.2V8h17.8
	C30.8,8,31,8.2,31,8.4s-0.2,0.4-0.4,0.4H12.8v5.6c0,0.2-0.2,0.4-0.4,0.4c-0.1,0-0.1,0-0.2,0l-10-6C2.1,8.7,2,8.6,2,8.4z M3.2,8.4
	l8.7,5.3V3.1L3.2,8.4z"/>
</svg>
